# xmcd
#
# Track frame offsets:
#	150
#	9145
#	22715
#	33592
#	46162
#	59308
#	74652
#	85775
#	105088
#	117330
#	138093
#
# Disc length: 2011 seconds
# Revision: 1
# Processed by: cddbd v1.5.2PL0 Copyright (c) Steve Scherf et al.
# Submitted via: dBpowerAMP V12.0
#
DISCID=7a07d90b
DTITLE=The Nashville String Machine - Blame It All My Roots - Country Classics
DYEAR=2013
DGENRE=Country
TTITLE0=Great Balls of Fire
TTITLE1=After the Fire is Gone
TTITLE2=Act Naturally
TTITLE3=Tonight the Bottle Let Me Down
TTITLE4=Amos Moses
TTITLE5=Fishin' In the Dark
TTITLE6=Unwound
TTITLE7=Good Ole Boys Like Me
TTITLE8=White Lightnin'
TTITLE9=Don't Close Your Eyes
TTITLE10=Jambalaya
EXTD=
EXTT0=
EXTT1=
EXTT2=
EXTT3=
EXTT4=
EXTT5=
EXTT6=
EXTT7=
EXTT8=
EXTT9=
EXTT10=
PLAYORDER=
